<svg xmlns="http://www.w3.org/2000/svg" id="Layer_1" data-name="Layer 1" viewBox="0 0 50.75 50.75"><defs><style>.cls-1{fill:none;stroke:#f27a69;stroke-miterlimit:10;}</style></defs><path class="cls-1" d="M21.85,25.43l1.36,1.34a2.32,2.32,0,0,0-.65,2.13A2.38,2.38,0,0,0,24,30.63l-.13.14-6.25,6.14a2.64,2.64,0,0,1-4.42-1.12,2.38,2.38,0,0,1,.63-2.45C15.17,32,16.56,30.61,18,29.25l3.77-3.7A.71.71,0,0,1,21.85,25.43ZM30,24.74A2.47,2.47,0,0,0,26,24L24.6,22.64a1.06,1.06,0,0,0,.19-.11L28,19.41a1.36,1.36,0,0,0,.41-1.27,5.79,5.79,0,0,1,5-6.73A5.86,5.86,0,0,1,38,12.72l.11.1-.18.1-4.62,2.49a.25.25,0,0,0-.16.27c0,.72,0,1.45,0,2.18a.23.23,0,0,0,.12.22l1.93,1.15a.26.26,0,0,0,.28,0l4.38-2.37.27-.14c0,.11,0,.19,0,.27a5.89,5.89,0,0,1-4.78,5.87A5.52,5.52,0,0,1,33,22.81a1.43,1.43,0,0,0-1.46.42c-.47.47-.94.92-1.42,1.38Zm-5.18,2-.54-.5q-3.71-3.73-7.4-7.46c-.08-.08-.15-.16-.23-.23a1.15,1.15,0,0,0-.67-.35,1.65,1.65,0,0,1-1.14-.63c-.61-.77-1.23-1.53-1.85-2.29a1.7,1.7,0,0,1-.15-.22.41.41,0,0,1,.06-.54c.22-.23.44-.45.68-.67a.45.45,0,0,1,.61,0c.31.21.61.43.91.66.53.42,1.06.86,1.6,1.28a1.59,1.59,0,0,1,.64,1.1,1.21,1.21,0,0,0,.38.71L26,25.47a1,1,0,0,0,.1.09l.79-.77A1.25,1.25,0,0,1,28,24.44,1.28,1.28,0,0,1,29,25.67,2.45,2.45,0,0,0,29.54,27a2.54,2.54,0,0,0,1.79,1,1.69,1.69,0,0,1,1.07.51l5,4.88a2.47,2.47,0,0,1,0,3.56c-.35.35-.7.7-1.06,1a2.56,2.56,0,0,1-3.55,0c-1.73-1.67-3.43-3.36-5.15-5a1.39,1.39,0,0,1-.39-.9,2.55,2.55,0,0,0-.61-1.44,2.53,2.53,0,0,0-1.75-.85,1.24,1.24,0,0,1-1.16-.82A1.21,1.21,0,0,1,24,27.53ZM50.38,25.4a25,25,0,1,1-25-25A25,25,0,0,1,50.38,25.4Z"></path></svg>