<svg xmlns="http://www.w3.org/2000/svg" id="Layer_1" data-name="Layer 1" viewBox="0 0 50.75 50.75"><defs><style>.cls-1{fill:none;stroke:#f27a69;stroke-miterlimit:10;}</style></defs><path class="cls-1" d="M37.52,25.4A8.16,8.16,0,0,1,26.05,36.88ZM24.73,35.58A8.16,8.16,0,0,1,36.21,24.11Zm4.68-14c.38-.43.78-.8,1.1-1.24a4.79,4.79,0,0,0-3.2-7.56,4.6,4.6,0,0,0-4,1.3c-1.38,1.33-2.72,2.7-4.07,4.06a.5.5,0,0,0-.07.08l5.69,5.7c-.32.39-.65.75-.94,1.13a8.62,8.62,0,0,0-1.79,5.85.83.83,0,0,1-.55.92,6.82,6.82,0,0,1-9.67-4.07,6.61,6.61,0,0,1,1.75-6.9c2.68-2.72,5.36-5.41,8.08-8.08a6.58,6.58,0,0,1,7.35-1.61,6.5,6.5,0,0,1,4.31,5.34,6.62,6.62,0,0,1-1,4.79.39.39,0,0,1-.38.19c-.74,0-1.47,0-2.21.07Zm21,3.79a25,25,0,1,1-25-25A25,25,0,0,1,50.38,25.37Z"></path></svg>