<svg xmlns="http://www.w3.org/2000/svg" id="Layer_1" data-name="Layer 1" viewBox="0 0 50.75 50.75"><defs><style>.cls-1{fill:none;stroke:#f27a69;stroke-miterlimit:10;}</style></defs><path class="cls-1" d="M14.45,28.51V27.23h-.51C14.11,27.64,14.26,28,14.45,28.51Zm22.34-1.27v1.32h.05c.17-.44.35-.88.53-1.33Zm-22.33-4H12.31c.36.88.7,1.74,1,2.6a.28.28,0,0,0,.21.12c.29,0,.58,0,.89,0Zm22.31,2.7c1.11.1,1.11.1,1.49-.86.06-.13.11-.26.16-.39L39,23.18H36.77Zm-17.66,8c0-.89,0-1.7,0-2.52,0-.25-.15-.25-.33-.24h-3a1.39,1.39,0,0,0-.23,0c.35.87.68,1.71,1,2.54a.29.29,0,0,0,.21.17Zm0-6.65H15.8V29.8h3.28Zm-3.27-1.35h3.27V23.17H15.81Zm15.76,8H34c.71,0,.71,0,1-.65a6.85,6.85,0,0,0,.34-.85c.1-.39.15-.8.23-1.24h-4Zm3.86-6.64H31.57V29.8h3.86Zm-5.21,0H26.34v2.57h3.88Zm-3.91,6.62h3.92V31.13c-1.25,0-2.48,0-3.71,0-.07,0-.2.15-.2.24C26.3,32.19,26.31,33,26.31,33.86Zm9.13-10.68H31.57v2.71h3.87Zm-9.1,2.72h3.89V23.18H26.34ZM25,27.22H20.62c-.07,0-.19.1-.19.16,0,.8,0,1.6,0,2.41H25Zm0,3.93H20.45v2.71H25Zm0-8H20.43v2.71H25ZM21.21,14.5c-.59,0-1.16,0-1.73,0a.51.51,0,0,0-.57.35c-.85,1.89-1.72,3.76-2.58,5.63l-.14.36H35.1s0-.08,0-.1c-.92-2-1.84-4-2.77-6a.36.36,0,0,0-.24-.18c-.63,0-1.25,0-1.86,0-.14.85-.18.89-1,.89h-7C21.4,15.39,21.34,15.34,21.21,14.5Zm0-1.95c0-.09,0-.14,0-.19.07-.54.18-.65.74-.65h7.23c.83,0,.86,0,1,.84.77,0,1.54,0,2.32,0a1.25,1.25,0,0,1,1.33.85c1.08,2.38,2.21,4.76,3.31,7.14a.46.46,0,0,0,.5.33c1,0,1.89,0,2.84,0a1.18,1.18,0,0,1,1.18,1.76q-2.54,6.3-5.08,12.62a1.26,1.26,0,0,1-1.4.94H16.09a1.24,1.24,0,0,1-1.39-.94q-2.55-6.32-5.09-12.62a1.19,1.19,0,0,1,1.19-1.76c.94,0,1.89,0,2.83,0a.46.46,0,0,0,.51-.33c1.1-2.38,2.22-4.76,3.31-7.15a1.25,1.25,0,0,1,1.33-.84C19.58,12.58,20.38,12.55,21.22,12.55ZM50.38,25.37a25,25,0,1,1-25-25A25,25,0,0,1,50.38,25.37Z"></path></svg>