<svg xmlns="http://www.w3.org/2000/svg" id="Layer_1" data-name="Layer 1" viewBox="0 0 50.76 50.76"><defs><style>.cls-1{fill:none;stroke:#f27a69;stroke-miterlimit:10;}</style></defs><path class="cls-1" d="M18,38.4a2.86,2.86,0,0,1,1.29-2.46,2.58,2.58,0,0,1,3.39.53,3.13,3.13,0,0,1-.29,4.24,2.49,2.49,0,0,1-3.55-.13A3,3,0,0,1,18,38.4Zm14.43,3.05A2.85,2.85,0,0,1,31.37,41a3.07,3.07,0,0,1-.13-5,2.59,2.59,0,0,1,3.6.58,3,3,0,0,1-1,4.53,5.87,5.87,0,0,1-.81.26ZM12.34,13h3.51L16,13a1.45,1.45,0,0,1,1.14.82,4.94,4.94,0,0,1,.34,1.07c.11.6.17,1.21.26,1.82,0,.3.08.6.13.9H32.12c1.84,0,3.67,0,5.51,0a3.42,3.42,0,0,1,.9.12,1.52,1.52,0,0,1,1.12,1.16v.49c-.1.36-.18.73-.3,1.09-.61,1.94-1.23,3.88-1.84,5.82-.14.42-.27.84-.44,1.24A2.17,2.17,0,0,1,34.88,29C30,29,25,29,20.09,29h-.24c.14.91.28,1.79.4,2.68,0,.13.06.17.2.17H34.93a1.13,1.13,0,0,1,1.27,1A2.22,2.22,0,0,1,36,34.06a.88.88,0,0,1-.66.55,3.61,3.61,0,0,1-.73.07H19.76a1.67,1.67,0,0,1-1.36-.63,3.42,3.42,0,0,1-.7-1.43c-.19-.8-.35-1.61-.49-2.42-.49-2.82-1-5.65-1.46-8.48-.28-1.64-.57-3.27-.86-4.91,0-.13-.07-.17-.2-.17h-2a1.19,1.19,0,0,1-.9-.37,2.32,2.32,0,0,1-.56-1c0-.17-.07-.34-.1-.5v-.56l.06-.2a1.29,1.29,0,0,1,.84-.93Zm38,12.42a25,25,0,1,1-25-25A25,25,0,0,1,50.38,25.38Z"></path></svg>