<svg xmlns="http://www.w3.org/2000/svg" id="Layer_1" data-name="Layer 1" viewBox="0 0 50.75 50.75"><defs><style>.cls-1{fill:none;stroke:#f27a69;stroke-miterlimit:10;}</style></defs><path class="cls-1" d="M36.63,40.69H26.75V26.79h9.88ZM25.7,20.21a1.83,1.83,0,0,1,.13.16c1.25-.74,2.54-1.42,3.73-2.25a12.45,12.45,0,0,0,2.28-2.07,7.81,7.81,0,0,0,.9-1.75l-.21-.12C29.8,15.67,27.83,18,25.7,20.21ZM24,20.16c-1.71-2.68-3.22-5.51-6-7.29C18.74,16.34,21.5,18.14,24,20.16Zm14,.53V26H26.71V20.76H24.06V26H12.74V20.76H22.86s0-.09,0-.13c-.68-.2-1.37-.37-2.05-.6a12.77,12.77,0,0,1-4.44-2.36,4.49,4.49,0,0,1-1.62-2.58,2.53,2.53,0,0,1,.88-2.61,28.6,28.6,0,0,1,2.47-1.78A3.3,3.3,0,0,1,23,11.82a15.66,15.66,0,0,1,1.86,5.81,4.94,4.94,0,0,0,.28,1.1c.09-.26.17-.51.25-.77a17.2,17.2,0,0,1,2.34-5.27A4.34,4.34,0,0,1,30,10.9a2.88,2.88,0,0,1,3,.73,26.68,26.68,0,0,1,2.32,2.55,2.77,2.77,0,0,1-.41,4.08,10.21,10.21,0,0,1-4.65,2c-.61.14-1.24.22-1.86.39ZM14.08,26.78H24V40.66H14.08Zm36.3-1.41a25,25,0,1,1-25-25A25,25,0,0,1,50.38,25.37Z"></path></svg>