<svg xmlns="http://www.w3.org/2000/svg" id="Layer_1" data-name="Layer 1" viewBox="0 0 50.75 48.85"><defs><style>.cls-1{fill:none;stroke:#f27a69;stroke-miterlimit:10;}</style></defs><path class="cls-1" d="M21.45,13.77A4.93,4.93,0,0,0,26.2,16.2c1.56-.14,3.4-1.32,3.74-2.43-1.17-.75-2.33-1.5-3.5-2.23a1.37,1.37,0,0,0-1.53,0C23.76,12.28,22.62,13,21.45,13.77ZM26.5,9.88l4,2.5c0-.07.07-.15.12-.23a.66.66,0,0,1,.86-.31c1.89.71,3.79,1.43,5.66,2.18a1.66,1.66,0,0,1,.74.74c1.43,2.85,2.83,5.71,4.24,8.57.31.62,0,1.08-.7,1.08-1.81,0-3.61,0-5.42,0h-.48V38c0,1-.54,1.55-1.62,1.55H17.53a1.42,1.42,0,0,1-1.62-1.57V24.41H10.07c-.83,0-1.1-.4-.78-1.14,1.19-2.81,2.4-5.61,3.59-8.42a1.56,1.56,0,0,1,1-.92l5.8-2c.72-.25.91-.19,1.29.46L22,11.68a20.68,20.68,0,0,1,2.18-1.35,1.55,1.55,0,0,0,1-1.2,3.31,3.31,0,0,1,1-1.59.67.67,0,0,0,.12-.87.73.73,0,0,0-.78-.34A.72.72,0,0,0,25,7a.75.75,0,0,1-1.1.63.72.72,0,0,1-.39-.74,2.17,2.17,0,0,1,1.66-2,2.27,2.27,0,0,1,2.47,1,2.11,2.11,0,0,1-.21,2.55,11.48,11.48,0,0,0-.81,1.16A.81.81,0,0,0,26.5,9.88ZM50.38,24.42c0,13.29-11.2,24-25,24s-25-10.76-25-24,11.19-24,25-24S50.38,11.14,50.38,24.42Z"></path></svg>